<?xml version="1.0" encoding="UTF-8"?>
<svg width="13px" height="10px" viewBox="0 0 13 10" version="1.1" xmlns="http://www.w3.org/2000/svg" xmlns:xlink="http://www.w3.org/1999/xlink">
    <!-- Generator: Sketch 47.1 (45422) - http://www.bohemiancoding.com/sketch -->
    <title>Fill 1 Copy 2</title>
    <desc>Created with Sketch.</desc>
    <defs></defs>
    <g id="Page-1" stroke="none" stroke-width="1" fill="none" fill-rule="evenodd">
        <g id="Group-28" transform="translate(-265.000000, -460.000000)" fill="#142739">
            <g id="Group-15" transform="translate(219.000000, 450.000000)">
                <g id="Group-23">
                    <g id="Group-2-Copy" transform="translate(37.000000, 0.000000)">
                        <path d="M9.7993125,10.440087 C9.2354625,11.6510277 9.492975,12.8214218 10.469475,13.727483 C10.1300625,13.6378126 9.7898625,13.5489219 9.45045,13.4592515 C9.51345,14.6429012 10.289925,15.4553933 11.357775,15.8975075 L10.3631625,15.8975075 C10.7947125,16.918191 11.6719875,17.4647907 12.7603125,17.6020255 C11.6515125,18.3794292 10.3458375,18.6788504 9,18.6180305 C11.6798625,20.2445742 15.3133875,19.9997349 17.757,18.0488182 C18.779175,17.2324274 19.5627375,16.1431265 19.9895625,14.9126922 C20.2084875,14.2803207 20.3124375,13.6339139 20.3533875,12.9695729 C20.401425,12.1890503 21.0542625,11.8061965 21.6,11.2814296 C21.4495875,11.125481 20.4636375,11.4919601 20.26125,11.5418637 C20.6132625,11.1972173 21.1582125,10.8042269 21.2031,10.273222 C20.8337625,10.4026593 20.410875,10.6233265 20.0289375,10.6872655 C19.5910875,10.7605613 19.4131125,10.5406738 19.0524375,10.3395001 C18.4996125,10.0322814 17.8452,9.93013511 17.2238625,10.0470965 C15.6488625,10.3426191 15.2110125,11.5972254 15.1228125,12.9992032 C13.0532625,12.8611887 11.1994875,11.9496692 9.7993125,10.440087 C9.196875,11.7329007 11.2491,12.0026917 9.7993125,10.440087" id="Fill-1-Copy-2"></path>
                    </g>
                </g>
            </g>
        </g>
    </g>
</svg>